<?xml version="1.0" encoding="UTF-8" standalone="no"?>
<!-- Created with Inkscape (http://www.inkscape.org/) -->

<svg
   width="64.394836mm"
   height="29.478317mm"
   viewBox="0 0 64.394836 29.478317"
   version="1.1"
   id="svg237"
   xml:space="preserve"
   xmlns="http://www.w3.org/2000/svg"
   xmlns:svg="http://www.w3.org/2000/svg"><defs
     id="defs234" /><g
     id="g595"
     style="display:inline"
     transform="translate(-15.037384,-187.3966)"><g
       aria-label="MyProfile"
       id="text3566"
       style="font-size:11.5877px;font-family:'Night Club Seventy';-inkscape-font-specification:'Night Club Seventy';display:inline;opacity:1;stroke:#a6d400;stroke-width:0.507695;paint-order:fill markers stroke"><path
         d="m 38.196259,201.92506 -3.66642,-3.13456 v 8.13629 h 2.09348 l 0.0057,-3.73432 1.567281,1.55031 1.686101,-1.61255 v 3.7909 l 2.127429,0.006 v -8.13629 z"
         style="font-family:TypoGraphica;-inkscape-font-specification:TypoGraphica;fill:#000000;stroke:#000000"
         id="path397" /><path
         d="m 46.411757,207.58878 h -0.0057 v 0.0566 q -0.0057,0.017 -0.0057,0.0283 -0.0057,0.0792 -0.02829,0.13013 l -0.01132,0.0396 -0.01132,0.0396 -0.01132,0.0283 -0.0057,0.017 q -0.130135,0.31119 -0.390406,0.48659 -0.277244,0.19238 -0.61107,0.19238 -0.430012,0 -0.741205,-0.29422 -0.311193,-0.29422 -0.333826,-0.72423 l -1.635178,0.95621 q 0.113161,0.38475 0.588438,0.87134 0.729889,0.72423 1.940713,0.74686 h 0.299877 q 0.543174,0 1.080689,-0.19237 0.594096,-0.21501 0.93358,-0.55449 0.746863,-0.75818 0.746863,-1.81058 v -6.47281 l -1.810578,0.006 v 3.24773 q 0,0.50922 -0.237638,0.77515 -0.248955,0.26593 -0.661993,0.26593 -0.430012,0 -0.667651,-0.26027 -0.237638,-0.26593 -0.237638,-0.78081 v -3.25338 h -1.810578 v 3.37786 q 0,2.83468 2.676261,2.55178 0.43567,-0.0396 0.950553,-0.24896 z"
         style="font-family:TypoGraphica;-inkscape-font-specification:TypoGraphica;fill:#000000;stroke:none"
         id="path399" /><path
         d="m 48.493921,206.92113 v -8.02878 h 2.399016 q 0.803444,0 1.36925,0.12447 0.577122,0.12448 0.995818,0.4187 0.418696,0.29422 0.645018,0.79778 0.226323,0.50357 0.226323,1.2278 0,0.5941 -0.226323,1.06372 -0.226322,0.46962 -0.628044,0.80344 -0.40738,0.33948 -0.956211,0.51488 -0.560148,0.18106 -1.159902,0.18106 h -0.690283 v 2.89693 z m 1.974662,-6.32571 v 1.72571 h 0.565806 q 0.543173,0 0.837392,-0.22632 0.288561,-0.22067 0.288561,-0.64502 0,-0.41304 -0.288561,-0.63371 -0.294219,-0.22066 -0.837392,-0.22066 z"
         style="font-family:TypoGraphica;-inkscape-font-specification:TypoGraphica;stroke:none"
         id="path401" /><path
         d="m 57.382728,200.92925 q -0.181057,-0.0283 -0.367773,-0.034 H 56.91311 q -2.500861,0.12447 -2.500861,2.59705 v 3.42878 h 1.810578 v -3.42878 q 0,-0.93358 0.690283,-0.96187 h 0.101845 q 0.226322,0.0113 0.367773,0.1075 z"
         style="font-family:TypoGraphica;-inkscape-font-specification:TypoGraphica;stroke:none"
         id="path403" /><path
         d="m 60.981253,207.10784 q -0.865682,0 -1.635178,-0.40738 -0.769496,-0.40738 -1.22214,-1.11463 -0.458303,-0.71292 -0.458303,-1.59558 0,-0.66199 0.265929,-1.23345 0.265929,-0.57147 0.729889,-0.99016 0.469619,-0.42436 1.069373,-0.65068 0.61107,-0.22632 1.25043,-0.22632 0.645019,0 1.256089,0.22632 0.594096,0.21501 1.069373,0.64502 0.469618,0.43001 0.729889,0.99582 0.265929,0.57146 0.265929,1.23345 0,0.67331 -0.260271,1.23346 -0.260271,0.56581 -0.735547,1.00148 -0.480935,0.43001 -1.069373,0.65067 -0.594096,0.23198 -1.256089,0.23198 z m -1.510701,-3.11759 q 0,0.60542 0.452645,1.04109 0.446986,0.43567 1.058056,0.43567 0.616729,0 1.063715,-0.43567 0.452645,-0.43567 0.452645,-1.04109 0,-0.39606 -0.209349,-0.72989 -0.209348,-0.33382 -0.560147,-0.53185 -0.345142,-0.19803 -0.746864,-0.19803 -0.390405,0 -0.741205,0.19803 -0.3508,0.19803 -0.560148,0.53185 -0.209348,0.33383 -0.209348,0.72989 z"
         style="font-family:TypoGraphica;-inkscape-font-specification:TypoGraphica;stroke:none"
         id="path405" /><path
         d="m 65.58691,201.12162 q 0,-1.0524 0.362116,-1.6182 0.362115,-0.56015 1.01845,-0.82608 0.645018,-0.26027 1.561623,-0.26027 l 0.01132,1.67478 q -0.684625,-0.006 -0.916606,0.19803 -0.23198,0.21501 -0.23198,0.83174 h 0.707257 l 0.401722,1.55031 H 67.39183 v 4.24354 h -1.80492 v -4.24354 h -0.594096 l -0.40738,-1.55031 z"
         style="font-family:TypoGraphica;-inkscape-font-specification:TypoGraphica;stroke:none"
         id="path407" /><path
         d="m 70.696135,201.13294 v 5.7995 h -1.80492 v -5.79385 z m 0.0057,-1.64084 q 0,0.27159 -0.124477,0.48093 -0.124477,0.20935 -0.339483,0.33949 -0.215007,0.13013 -0.475277,0.13013 -0.260271,0 -0.469619,-0.12447 -0.215006,-0.13014 -0.339483,-0.34515 -0.130136,-0.22632 -0.130136,-0.48093 0,-0.26027 0.124478,-0.47528 0.135793,-0.22066 0.345141,-0.34514 0.209348,-0.12448 0.469619,-0.12448 0.26027,0 0.475277,0.12448 0.209348,0.12448 0.339483,0.34514 0.124477,0.21501 0.124477,0.47528 z"
         style="font-family:TypoGraphica;-inkscape-font-specification:TypoGraphica;stroke:none"
         id="path409" /><path
         d="m 70.984695,198.89235 1.80492,-0.006 v 8.02312 l -1.80492,0.0226 z"
         style="font-family:TypoGraphica;-inkscape-font-specification:TypoGraphica;stroke:none"
         id="path411" /><path
         d="m 76.252349,202.53613 q 0.37909,0 0.712915,0.19238 0.20369,0.12447 0.396064,0.3508 H 75.14337 q 0.192374,-0.22633 0.396064,-0.3508 0.333825,-0.19238 0.712915,-0.19238 z m 2.925215,0.22633 q -0.254612,-0.57713 -0.701599,-0.99016 -0.452644,-0.42436 -1.024108,-0.64502 -0.577122,-0.22632 -1.199508,-0.22632 -0.622386,0 -1.205166,0.22632 -0.565806,0.22066 -1.01845,0.65067 -0.446987,0.4187 -0.701599,0.98451 -0.254613,0.56014 -0.254613,1.22214 0,0.88265 0.441329,1.58991 0.430012,0.70726 1.171217,1.11464 0.724232,0.40172 1.567282,0.40172 0.622386,0 1.199508,-0.22632 0.430012,-0.1754 0.848708,-0.51489 l -0.973185,-1.39188 -0.01132,0.017 -0.01698,0.017 -0.01697,0.0226 -0.01132,0.0113 q -0.430012,0.43001 -1.01845,0.43001 -0.58278,0 -1.01845,-0.43001 -0.345142,-0.34514 -0.413038,-0.82042 h 3.892743 v -0.0113 h 0.701599 l 0.01132,-0.0962 q 0.0057,-0.034 0.0057,-0.0622 v -0.0509 q 0,-0.65068 -0.254613,-1.22214 z"
         style="font-family:TypoGraphica;-inkscape-font-specification:TypoGraphica;stroke:none"
         id="path413" /></g><g
       id="g593"
       transform="matrix(1.2999326,0,0,1.2999326,-179.99133,-51.4361)"
       style="display:inline"><g
         id="g539"
         style="display:inline;opacity:1;fill:#ffff00"
         transform="matrix(0.33123406,0,0,0.33123406,82.29807,139.81698)"><path
           style="display:inline;opacity:1;fill:#000000;stroke:#a6d400;stroke-width:0;paint-order:fill markers stroke"
           d="m 238.0468,186.35422 c 0.012,0.24523 0.0359,0.7352 -0.18879,1.2793 -0.22466,0.54411 -0.69775,1.14272 -1.46718,1.30592 -0.76943,0.16319 -1.83576,-0.10916 -2.79148,-0.81224 -0.95573,-0.70308 -1.80064,-1.83721 -2.449,-2.60281 -0.64837,-0.7656 -1.10025,-1.16251 -1.71554,-1.35262 -0.61528,-0.19012 -1.39389,-0.17298 -1.90035,0.3083 -0.50646,0.48127 -0.74018,1.4263 -0.7984,2.4093 -0.0582,0.98299 0.0589,2.00369 0.31016,2.6269 0.25125,0.62321 0.63611,0.8491 1.33055,1.22141 0.69444,0.3723 1.69841,0.89102 2.95315,1.1759 1.25473,0.28488 2.7602,0.33619 4.08197,0.01 1.32178,-0.32636 2.46007,-1.03025 3.08771,-1.87141 0.62763,-0.84116 0.74476,-1.82003 0.74638,-2.48813 0.002,-0.66809 -0.11248,-1.02545 -0.23285,-1.25909 -0.12038,-0.23364 -0.24731,-0.34334 -0.47495,-0.50937 -0.22763,-0.16602 -0.55597,-0.38827 -0.65668,-0.34521 -0.10071,0.0431 0.0265,0.35118 0.0899,0.50497 0.0635,0.15378 0.0634,0.15382 0.0754,0.39905 z"
           id="path535" /><path
           style="display:inline;opacity:1;fill:#000000;stroke:#a6d400;stroke-width:0;paint-order:fill markers stroke"
           d="m 215.66225,186.43705 c -0.012,0.24523 -0.0359,0.73519 0.18879,1.2793 0.22466,0.54411 0.69774,1.14272 1.46717,1.30591 0.76944,0.1632 1.83577,-0.10915 2.79149,-0.81223 0.95573,-0.70308 1.80064,-1.83721 2.449,-2.60281 0.64837,-0.7656 1.10025,-1.16251 1.71554,-1.35262 0.61528,-0.19012 1.39389,-0.17298 1.90035,0.30829 0.50645,0.48128 0.74017,1.42631 0.7984,2.4093 0.0582,0.98299 -0.0589,2.00369 -0.31016,2.6269 -0.25125,0.62322 -0.63611,0.84911 -1.33055,1.22141 -0.69444,0.3723 -1.69841,0.89102 -2.95314,1.17591 -1.25474,0.28488 -2.76021,0.33619 -4.08198,0.01 -1.32178,-0.32636 -2.46007,-1.03025 -3.08771,-1.87141 -0.62763,-0.84116 -0.74476,-1.82004 -0.74638,-2.48813 -0.002,-0.66809 0.11248,-1.02545 0.23285,-1.25909 0.12038,-0.23364 0.24731,-0.34335 0.47494,-0.50937 0.22764,-0.16603 0.55597,-0.38827 0.65669,-0.34521 0.10072,0.043 -0.0265,0.35118 -0.0899,0.50497 -0.0635,0.15378 -0.0634,0.15382 -0.0754,0.39905 z"
           id="path537" /><path
           id="path1861"
           style="display:inline;opacity:1;fill:#000000;stroke:#a6d400;stroke-width:0;paint-order:fill markers stroke"
           d="m 97.696833,210.09586 a 3.5879288,1.4754772 0 0 1 -3.563117,1.35927 3.5879288,1.4754772 0 0 1 -1.540621,-0.15026 7.4690313,2.0287957 60.766331 0 1 2.544097,3.59075 7.4690313,2.0287957 60.766331 0 1 2.461194,6.44746 2.0287957,7.4690313 29.233669 0 1 2.430104,-6.17975 2.0287957,7.4690313 29.233669 0 1 2.85153,-3.91719 3.5879288,1.4754772 0 0 1 -1.63389,0.16581 3.5879288,1.4754772 0 0 1 -3.549297,-1.31609 z"
           transform="matrix(0.69487356,0,0,0.69487356,159.16605,47.221032)" /></g><g
         id="g571"
         transform="matrix(0.15856211,0,0,0.15856211,93.471973,158.75927)"
         style="display:inline"><g
           id="g545"
           style="display:inline;fill:#000000"
           transform="translate(237.01636,6.7934625)"><circle
             style="display:inline;opacity:1;fill:#000000;stroke:#a6d400;stroke-width:0;paint-order:fill markers stroke"
             id="circle541"
             cx="179.27373"
             cy="243.20114"
             r="12.273878" /><circle
             style="display:inline;opacity:1;fill:#ffffff;stroke:#a6d400;stroke-width:0;paint-order:fill markers stroke"
             id="circle543"
             cx="179.17984"
             cy="243.15419"
             r="10.490293" /></g><g
           id="g551"
           style="display:inline"
           transform="translate(237.01636,6.7934625)"><circle
             style="opacity:1;fill:#000000;stroke:#a6d400;stroke-width:0;paint-order:fill markers stroke"
             id="circle547"
             cx="192.83835"
             cy="239.5401"
             r="3.3559546" /><circle
             style="opacity:1;fill:#ffffff;stroke:#a6d400;stroke-width:0;paint-order:fill markers stroke"
             id="circle549"
             cx="192.79141"
             cy="239.49316"
             r="1.7601161" /></g><g
           id="g563"
           style="display:inline"
           transform="translate(237.01636,6.7934625)"><rect
             style="opacity:1;fill:#000000;stroke:#a6d400;stroke-width:0;paint-order:fill markers stroke"
             id="rect553"
             width="1.9713304"
             height="8.4016218"
             x="194.22299"
             y="248.24681"
             ry="0.6101737" /><rect
             style="opacity:1;fill:#000000;stroke:#a6d400;stroke-width:0;paint-order:fill markers stroke"
             id="rect555"
             width="1.9713304"
             height="7.462893"
             x="194.08218"
             y="240.40843"
             ry="0.54199785" /><rect
             style="opacity:1;fill:#000000;stroke:#a6d400;stroke-width:0;paint-order:fill markers stroke"
             id="rect557"
             width="1.9713304"
             height="9.3872871"
             x="194.26993"
             y="257.16473"
             ry="0.68175834" /><rect
             style="display:inline;opacity:1;fill:#000000;stroke:#a6d400;stroke-width:0;paint-order:fill markers stroke"
             id="rect559"
             width="1.9713305"
             height="8.2608128"
             x="194.26993"
             y="267.06833"
             ry="0.59994733" /><rect
             style="display:inline;opacity:1;fill:#000000;stroke:#a6d400;stroke-width:0;paint-order:fill markers stroke"
             id="rect561"
             width="1.9713305"
             height="8.4016218"
             x="194.22299"
             y="275.98624"
             ry="0.6101737" /></g><g
           id="g569"
           style="display:inline"
           transform="translate(237.01636,6.7934625)"><path
             style="display:inline;opacity:1;fill:#000000;stroke:#a6d400;stroke-width:0;paint-order:fill markers stroke"
             d="m 172.68711,245.45425 c 0.78525,-2.10032 2.44427,-6.16843 3.31794,-8.23345 0.87368,-2.06501 0.96193,-2.12679 1.75625,-2.18855 0.79433,-0.0618 2.29446,-0.12353 3.40197,0.0531 1.10752,0.17659 1.8223,0.59133 2.09127,0.94426 0.26896,0.35293 0.0925,0.64414 -0.29141,1.46927 -0.38387,0.82513 -0.9751,2.18408 -1.69872,3.93136 -0.72362,1.74728 -1.57958,3.88277 -2.27673,5.72271 -0.69714,1.83994 -1.23543,3.3842 -1.65443,4.02843 -0.41899,0.64423 -0.71902,0.38833 -1.27938,-0.0132 -0.56035,-0.40154 -1.38101,-0.94865 -2.087,-1.53104 -0.70599,-0.58239 -1.29723,-1.20009 -1.637,-1.57512 -0.33978,-0.37503 -0.42801,-0.50739 0.35724,-2.60771 z"
             id="path565" /><path
             style="display:inline;opacity:1;fill:#000000;stroke:#a6d400;stroke-width:0;paint-order:fill markers stroke"
             d="m 180.35993,249.05891 c 0.94861,-2.33402 2.84588,-7.00219 3.83443,-9.31861 0.98855,-2.31643 1.06795,-2.28114 1.35912,-1.96779 0.29117,0.31334 0.79414,0.90456 0.98814,1.35014 0.19399,0.44558 0.0793,0.7456 -0.74583,2.82822 -0.82511,2.08262 -2.36054,5.9477 -3.1773,7.83649 -0.81675,1.8888 -0.91522,1.80108 -1.27704,1.75678 -0.36182,-0.0443 -0.987,-0.045 -1.35251,-0.0629 -0.36551,-0.0179 -0.4714,-0.0532 -0.52451,-0.0709 -0.0531,-0.0177 -0.0531,-0.0174 0.8955,-2.35141 z"
             id="path567" /></g></g><g
         id="g591"
         style="display:inline"
         transform="matrix(0.33123406,0,0,0.33123406,82.29807,139.81698)"><path
           style="opacity:1;fill:#000000;stroke:#a6d400;stroke-width:0;paint-order:fill markers stroke"
           d="m 205.53681,138.80104 c 1.14406,-0.90596 3.99109,-2.60873 8.0166,-3.92326 4.02551,-1.31453 9.22895,-2.24079 13.09779,-2.30878 3.86885,-0.068 6.40252,0.72206 7.27405,1.52568 0.87153,0.80362 0.0815,1.62093 -1.88005,2.663 -1.9615,1.04206 -5.09452,2.30888 -8.48635,2.99003 -3.39182,0.68115 -7.04249,0.7765 -10.09384,0.70842 -3.05135,-0.0681 -5.50322,-0.29964 -7.0085,-0.4699 -1.50527,-0.17025 -2.06376,-0.27923 -0.9197,-1.18519 z"
           id="path585" /><path
           style="opacity:1;fill:#000000;stroke:#a6d400;stroke-width:0;paint-order:fill markers stroke"
           d="m 206.70143,140.94656 c 2.05039,0.24523 6.15064,0.73562 10.74126,0.4018 4.59062,-0.33383 9.67143,-1.49165 12.77571,-2.66799 3.10428,-1.17633 4.23192,-2.3711 4.78213,-2.85935 0.55022,-0.48824 0.52298,-0.2703 0.58984,5.20979 0.0668,5.48009 0.22773,16.2218 0.37088,21.50243 0.14314,5.28063 0.26862,5.10034 -1.11381,5.67056 -1.38244,0.57023 -4.27149,1.89046 -6.474,2.55228 -2.2025,0.66181 -3.71548,0.66415 -5.62713,0.58519 -1.91166,-0.079 -4.22079,-0.23923 -5.39568,-0.33957 -1.17489,-0.10034 -1.2162,-0.14166 -1.25706,-0.18252 -3.75956,-9.91653 -7.5192,-19.83325 -9.47382,-24.85307 -1.95463,-5.01982 -2.10447,-5.14242 -2.13174,-5.20392 -0.0273,-0.0615 0.0681,-0.0615 0.11555,-0.0615 0.0474,0 0.0475,6.5e-4 2.09787,0.24588 z"
           id="path587" /><path
           style="opacity:1;fill:#000000;stroke:#a6d400;stroke-width:0;paint-order:fill markers stroke"
           d="m 208.34243,174.27802 c 0.32367,-0.36273 0.97099,-1.08817 1.75223,-1.84786 0.78125,-0.75969 1.69625,-1.55346 3.18184,-1.52772 1.48559,0.0257 3.54102,0.8707 6.32605,1.25223 2.78503,0.38152 6.2994,0.29979 9.28255,-0.42223 2.98314,-0.72202 5.43504,-2.08418 7.05601,-3.17392 1.62098,-1.08974 2.41103,-1.90704 4.01873,-2.15902 1.60771,-0.25198 4.03235,0.0613 4.92431,1.04902 0.89195,0.98772 0.25173,2.64958 -0.87881,3.99802 -1.13055,1.34844 -2.75155,2.3837 -5.2988,3.22828 -2.54725,0.84459 -6.02072,1.49842 -9.38544,2.00247 -3.36472,0.50404 -6.62035,0.8582 -9.5491,1.0353 -2.92876,0.17711 -5.53053,0.17711 -7.4308,0.11583 -1.90028,-0.0613 -3.09898,-0.18389 -3.71782,-0.6195 -0.61884,-0.43561 -0.65728,-1.18467 -0.66135,-1.66491 -0.004,-0.48024 0.0264,-0.69157 0.0416,-0.79742 0.0152,-0.10585 0.0152,-0.10585 0.33883,-0.46857 z"
           id="path589" /></g></g></g></svg>
