<?xml version="1.0" encoding="UTF-8" standalone="no"?>
<!-- Created with Inkscape (http://www.inkscape.org/) -->

<svg
   width="210mm"
   height="297mm"
   viewBox="0 0 210 297"
   version="1.1"
   id="svg5"
   xml:space="preserve"
   inkscape:version="1.2 (dc2aeda, 2022-05-15)"
   sodipodi:docname="shild-wall.svg"
   inkscape:export-filename="design-shield-wall/shild-wall.svg"
   inkscape:export-xdpi="96"
   inkscape:export-ydpi="96"
   xmlns:inkscape="http://www.inkscape.org/namespaces/inkscape"
   xmlns:sodipodi="http://sodipodi.sourceforge.net/DTD/sodipodi-0.dtd"
   xmlns:xlink="http://www.w3.org/1999/xlink"
   xmlns="http://www.w3.org/2000/svg"
   xmlns:svg="http://www.w3.org/2000/svg"><sodipodi:namedview
     id="namedview7"
     pagecolor="#ffffff"
     bordercolor="#000000"
     borderopacity="0.25"
     inkscape:showpageshadow="2"
     inkscape:pageopacity="0.0"
     inkscape:pagecheckerboard="0"
     inkscape:deskcolor="#d1d1d1"
     inkscape:document-units="mm"
     showgrid="false"
     inkscape:zoom="0.50438103"
     inkscape:cx="186.36704"
     inkscape:cy="444.10869"
     inkscape:window-width="2560"
     inkscape:window-height="1052"
     inkscape:window-x="0"
     inkscape:window-y="28"
     inkscape:window-maximized="0"
     inkscape:current-layer="svg5"
     showguides="true" /><defs
     id="defs2"><inkscape:path-effect
       effect="bspline"
       id="path-effect1889"
       is_visible="true"
       lpeversion="1"
       weight="33.333333"
       steps="2"
       helper_size="0"
       apply_no_weight="true"
       apply_with_weight="true"
       only_selected="false" /><inkscape:path-effect
       effect="bspline"
       id="path-effect40163"
       is_visible="true"
       lpeversion="1"
       weight="33.333333"
       steps="2"
       helper_size="0"
       apply_no_weight="true"
       apply_with_weight="true"
       only_selected="false" /><inkscape:path-effect
       effect="bspline"
       id="path-effect39878"
       is_visible="true"
       lpeversion="1"
       weight="33.333333"
       steps="2"
       helper_size="0"
       apply_no_weight="true"
       apply_with_weight="true"
       only_selected="false" /><inkscape:path-effect
       effect="bspline"
       id="path-effect39800"
       is_visible="true"
       lpeversion="1"
       weight="33.333333"
       steps="2"
       helper_size="0"
       apply_no_weight="true"
       apply_with_weight="true"
       only_selected="false" /><inkscape:path-effect
       effect="bspline"
       id="path-effect39796"
       is_visible="true"
       lpeversion="1"
       weight="33.333333"
       steps="2"
       helper_size="0"
       apply_no_weight="true"
       apply_with_weight="true"
       only_selected="false" /><inkscape:path-effect
       effect="bspline"
       id="path-effect39792"
       is_visible="true"
       lpeversion="1"
       weight="33.333333"
       steps="2"
       helper_size="0"
       apply_no_weight="true"
       apply_with_weight="true"
       only_selected="false" /><inkscape:path-effect
       effect="bspline"
       id="path-effect30754"
       is_visible="true"
       lpeversion="1"
       weight="33.333333"
       steps="2"
       helper_size="0"
       apply_no_weight="true"
       apply_with_weight="true"
       only_selected="false" /><inkscape:path-effect
       effect="bspline"
       id="path-effect27988"
       is_visible="true"
       lpeversion="1"
       weight="33.333333"
       steps="2"
       helper_size="0"
       apply_no_weight="true"
       apply_with_weight="true"
       only_selected="false" /><inkscape:path-effect
       effect="bspline"
       id="path-effect26119"
       is_visible="true"
       lpeversion="1"
       weight="33.333333"
       steps="2"
       helper_size="0"
       apply_no_weight="true"
       apply_with_weight="true"
       only_selected="false" /><inkscape:path-effect
       effect="bspline"
       id="path-effect24650"
       is_visible="true"
       lpeversion="1"
       weight="33.333333"
       steps="2"
       helper_size="0"
       apply_no_weight="true"
       apply_with_weight="true"
       only_selected="false" /><inkscape:path-effect
       effect="bspline"
       id="path-effect24646"
       is_visible="true"
       lpeversion="1"
       weight="33.333333"
       steps="2"
       helper_size="0"
       apply_no_weight="true"
       apply_with_weight="true"
       only_selected="false" /></defs><path
     id="path123"
     style="display:inline;opacity:1;fill:#ffd42a;fill-opacity:1;stroke-width:0.354787;stroke-dasharray:none"
     inkscape:label="circle-inside"
     d="m 103.15066,88.257289 a 46.9009,47.36583 0 0 0 -5.251288,0.297719 46.9009,47.36583 0 0 0 -5.185654,0.889796 46.9009,47.36583 0 0 0 -5.053662,1.470933 46.9009,47.36583 0 0 0 -4.859376,2.032731 46.9009,47.36583 0 0 0 -4.602888,2.5693 46.9009,47.36583 0 0 0 -4.290011,3.073066 46.9009,47.36583 0 0 0 -3.921648,3.539846 46.9009,47.36583 0 0 0 -3.504513,3.96036 46.9009,47.36583 0 0 0 -3.043632,4.33209 46.9009,47.36583 0 0 0 -2.544066,4.64915 46.9009,47.36583 0 0 0 -2.012553,4.90735 46.9009,47.36583 0 0 0 -1.455798,5.10415 46.9009,47.36583 0 0 0 -0.881385,5.23618 46.9009,47.36583 0 0 0 -0.294344,5.30348 46.9009,47.36583 0 0 0 0.294344,5.30346 46.9009,47.36583 0 0 0 0.881385,5.23619 46.9009,47.36583 0 0 0 1.455798,5.10412 46.9009,47.36583 0 0 0 2.012553,4.90732 46.9009,47.36583 0 0 0 2.544066,4.64913 46.9009,47.36583 0 0 0 3.043632,4.33206 46.9009,47.36583 0 0 0 3.504513,3.96035 46.9009,47.36583 0 0 0 3.921648,3.53982 46.9009,47.36583 0 0 0 4.290011,3.07307 46.9009,47.36583 0 0 0 4.602888,2.57015 46.9009,47.36583 0 0 0 4.859376,2.03188 46.9009,47.36583 0 0 0 5.053662,1.47094 46.9009,47.36583 0 0 0 5.185654,0.88979 46.9009,47.36583 0 0 0 5.251288,0.29771 46.9009,47.36583 0 0 0 5.25131,-0.29771 46.9009,47.36583 0 0 0 5.18485,-0.88979 46.9009,47.36583 0 0 0 5.05366,-1.47094 46.9009,47.36583 0 0 0 4.85937,-2.03188 46.9009,47.36583 0 0 0 4.60372,-2.57015 46.9009,47.36583 0 0 0 4.28918,-3.07307 46.9009,47.36583 0 0 0 3.92165,-3.53982 46.9009,47.36583 0 0 0 3.50451,-3.96035 46.9009,47.36583 0 0 0 3.04363,-4.33206 46.9009,47.36583 0 0 0 2.54408,-4.64913 46.9009,47.36583 0 0 0 2.01254,-4.90732 46.9009,47.36583 0 0 0 1.45663,-5.10412 46.9009,47.36583 0 0 0 0.88056,-5.23619 46.9009,47.36583 0 0 0 0.29518,-5.30346 46.9009,47.36583 0 0 0 -0.0345,-1.81408 46.9009,47.36583 0 0 0 -0.1035,-1.81156 46.9009,47.36583 0 0 0 -0.17157,-1.80651 46.9009,47.36583 0 0 0 -0.24053,-1.7981 46.9009,47.36583 0 0 0 -0.30781,-1.78801 46.9009,47.36583 0 0 0 -0.37592,-1.77455 46.9009,47.36583 0 0 0 -0.44325,-1.75857 46.9009,47.36583 0 0 0 -0.50879,-1.74007 46.9009,47.36583 0 0 0 -0.57526,-1.71904 46.9009,47.36583 0 0 0 -0.63916,-1.6955 46.9009,47.36583 0 0 0 -0.70393,-1.67026 46.9009,47.36583 0 0 0 -0.76616,-1.64084 46.9009,47.36583 0 0 0 -0.82756,-1.61054 46.9009,47.36583 0 0 0 -0.88896,-1.57692 46.9009,47.36583 0 0 0 -0.94698,-1.54242 46.9009,47.36583 0 0 0 -1.00588,-1.50374 46.9009,47.36583 0 0 0 -1.06133,-1.46338 46.9009,47.36583 0 0 0 -1.11688,-1.42217 46.9009,47.36583 0 0 0 -1.16902,-1.37759 46.9009,47.36583 0 0 0 -1.22114,-1.33133 46.9009,47.36583 0 0 0 -1.27077,-1.28339 46.9009,47.36583 0 0 0 -1.31787,-1.23294 46.9009,47.36583 0 0 0 -1.36413,-1.180782 46.9009,47.36583 0 0 0 -1.40785,-1.127798 46.9009,47.36583 0 0 0 -1.44992,-1.072296 46.9009,47.36583 0 0 0 -1.4886,-1.015107 46.9009,47.36583 0 0 0 -1.52644,-0.957077 46.9009,47.36583 0 0 0 -1.56175,-0.897362 46.9009,47.36583 0 0 0 -1.59456,-0.835969 46.9009,47.36583 0 0 0 -1.62571,-0.773733 46.9009,47.36583 0 0 0 -1.65342,-0.710653 46.9009,47.36583 0 0 0 -1.67866,-0.645901 46.9009,47.36583 0 0 0 -1.70222,-0.580298 46.9009,47.36583 0 0 0 -1.72325,-0.514702 46.9009,47.36583 0 0 0 -1.74173,-0.446579 46.9009,47.36583 0 0 0 -1.75688,-0.380141 46.9009,47.36583 0 0 0 -1.77033,-0.311175 46.9009,47.36583 0 0 0 -1.78043,-0.242212 46.9009,47.36583 0 0 0 -1.788,-0.174089 46.9009,47.36583 0 0 0 -1.79389,-0.103442 46.9009,47.36583 0 0 0 -1.7964,-0.03531 z" /><g
     inkscape:groupmode="layer"
     id="layer3"
     inkscape:label="cross"
     style="display:inline;opacity:1"
     transform="translate(-13.316572,35.25865)"><path
       style="opacity:1;fill:#5479ad;fill-opacity:1;stroke:#000000;stroke-width:0;stroke-dasharray:none;stroke-opacity:1;paint-order:fill markers stroke"
       d="m 69.906883,112.44976 c 0.818292,-0.15149 2.454526,-0.4544 4.753068,-0.34616 2.298541,0.10824 5.259043,0.62746 8.134846,1.31575 2.875803,0.68829 5.666626,1.5455 8.614146,3.95374 2.947521,2.40825 6.051594,6.36701 7.607026,10.75524 1.555431,4.38824 1.562531,9.20592 1.066621,12.29592 -0.495918,3.09 -1.494771,4.45261 -3.715545,5.07082 -2.220773,0.6182 -5.663767,0.49202 -9.764946,-1.88737 -4.101178,-2.3794 -8.860165,-7.01222 -12.195262,-11.83442 -3.335096,-4.8222 -5.2459,-9.83358 -5.895001,-13.06057 -0.649102,-3.22698 -0.0362,-4.6691 0.2703,-5.39028 0.306501,-0.72118 0.306456,-0.72118 1.124747,-0.87267 z"
       id="path24648"
       inkscape:path-effect="#path-effect24650"
       inkscape:original-d="m 69.088592,112.60125 c 1.636673,-0.30249 3.272908,-0.6054 4.908769,-0.90875 2.961071,0.51968 5.921572,1.03891 8.881731,1.55772 2.791425,0.85769 5.582247,1.7149 8.372808,2.57173 3.104623,3.95934 6.208695,7.9181 9.3124,11.87651 0.008,4.81811 0.0146,9.63579 0.0213,14.45307 -0.998447,1.36307 -1.997291,2.72569 -2.996615,4.08792 -3.442729,-0.12575 -6.885722,-0.25194 -10.329336,-0.37857 -4.758734,-4.63257 -9.517728,-9.26539 -14.277226,-13.89874 -1.910446,-5.01115 -3.821251,-10.02253 -5.732526,-15.03444 0.613357,-1.44175 1.22626,-2.88387 1.83874,-4.32645 z"
       sodipodi:nodetypes="cccccccccccc"
       inkscape:label="half-ball-botton-right" /><path
       style="opacity:1;fill:#687fb5;fill-opacity:1;stroke:#000000;stroke-width:0;stroke-dasharray:none;stroke-opacity:1;paint-order:fill markers stroke"
       d="m 148.71259,143.05501 c -4.60891,3.46478 -8.893,4.49845 -11.45926,0.52989 -2.56626,-3.96855 -3.41417,-12.93939 -1.78511,-19.13677 1.62907,-6.19737 5.73493,-9.62005 8.5257,-11.61958 2.79077,-1.99953 4.26597,-2.57564 6.50652,-2.91643 2.24054,-0.34079 5.24598,-0.44631 8.23674,0.35059 2.99076,0.7969 5.96634,2.4958 6.70568,5.56884 0.73934,3.07303 -0.75708,7.51995 -3.9723,12.69139 -3.21522,5.17145 -8.14906,11.06729 -12.75797,14.53207 z"
       id="path26117"
       inkscape:path-effect="#path-effect26119"
       inkscape:original-d="m 148.38759,145.48617 c -4.28379,1.03414 -8.56788,2.0678 -12.8526,3.10108 -0.84754,-8.97094 -1.69544,-17.94178 -2.54384,-26.91358 4.10653,-3.42245 8.21239,-6.84513 12.31805,-10.26843 1.47569,-0.5757 2.95089,-1.15181 4.42573,-1.72837 3.00607,-0.10511 6.01151,-0.21062 9.01673,-0.31657 2.97621,1.69944 5.95178,3.39835 8.9271,5.09693 -1.49604,4.44753 -2.99246,8.89444 -4.48934,13.34102 -4.93362,5.89652 -9.86745,11.79237 -14.80183,17.68792 z"
       sodipodi:nodetypes="cccccccccc"
       inkscape:label="half-ball-botton-left" /><path
       style="opacity:1;fill:#496c9c;fill-opacity:1;stroke:#000000;stroke-width:0;stroke-dasharray:none;stroke-opacity:1;paint-order:fill markers stroke"
       d="m 167.63217,87.713042 c 0.29608,2.21275 0.88799,6.636481 -4.12139,8.282669 -5.00939,1.646188 -15.61586,0.513999 -22.3527,-3.182692 -6.73684,-3.696691 -9.59763,-9.953791 -11.02249,-14.225742 -1.42486,-4.271951 -1.41084,-6.550219 -0.93723,-9.50766 0.47362,-2.95744 1.40623,-6.589335 3.31191,-10.264462 1.90568,-3.675128 4.78271,-7.389517 8.34031,-7.209745 3.5576,0.179773 7.79488,4.25389 12.08772,9.660238 4.29284,5.406348 8.64111,12.144667 11.05007,16.406096 2.40896,4.261429 2.87834,6.045079 3.11301,6.936813 0.23467,0.891734 0.23472,0.891734 0.53079,3.104485 z"
       id="path27984"
       inkscape:path-effect="#path-effect27988"
       inkscape:original-d="m 167.3361,85.500291 c 0.59251,4.425453 1.18444,8.849182 1.77615,13.274266 -10.6109,-1.13228 -21.21737,-2.264467 -31.82859,-3.397548 -2.86222,-6.260775 -5.72301,-12.517873 -8.58697,-18.781377 0.0147,-2.280302 0.0285,-4.558571 0.0421,-6.839346 0.93369,-3.63398 1.86632,-7.265871 2.7991,-10.90054 2.87855,-3.71534 5.75557,-7.429737 8.63258,-11.145091 4.23771,4.074528 8.47499,8.148649 12.71215,12.222639 4.34863,6.738631 8.6969,13.476951 13.0451,20.215396 0.4699,1.784405 0.93929,3.568055 1.40833,5.351601 z"
       sodipodi:nodetypes="cccccccccc"
       inkscape:label="half-ball-top-left" /><path
       style="opacity:1;fill:#637aae;fill-opacity:1;stroke:#000000;stroke-width:0;stroke-dasharray:none;stroke-opacity:1;paint-order:fill markers stroke"
       d="m 100.69536,59.763681 c 1.63413,3.273225 1.83745,7.806273 1.73341,10.827858 -0.10403,3.021585 -0.51523,4.531019 -1.23411,6.477223 -0.71887,1.946204 -1.744918,4.327922 -4.55019,6.937968 -2.805271,2.610045 -7.387438,5.446416 -12.836453,6.678858 -5.449015,1.232442 -11.758461,0.859736 -14.669356,0.630654 -2.910895,-0.229083 -2.417506,-0.314079 -2.157778,-2.292387 0.259728,-1.978309 0.286311,-5.850316 2.752236,-10.536594 2.465925,-4.686279 7.371468,-10.186434 11.042126,-14.048173 3.670659,-3.861739 6.106154,-6.084697 7.926159,-7.80785 1.820004,-1.723152 3.023256,-2.945255 5.159322,-2.549479 2.136066,0.395776 5.200508,2.408696 6.834634,5.681922 z"
       id="path30750"
       inkscape:path-effect="#path-effect30754"
       inkscape:original-d="m 102.12616,58.503692 c 0.20374,4.533196 0.40706,9.066244 0.60997,13.599292 -0.41087,1.510282 -0.82208,3.019712 -1.23383,4.529172 -1.026,2.383032 -2.052044,4.76475 -3.078931,7.147009 -4.583853,2.838122 -9.166022,5.67449 -13.750862,8.511811 -6.313529,-0.372541 -12.622975,-0.745249 -18.93867,-1.118728 0.494015,-0.08459 0.987403,-0.169594 1.480194,-0.254992 0.02604,-3.871714 0.05257,-7.743721 0.07975,-11.616432 4.905254,-5.49985 9.810801,-11.000001 14.716869,-16.500736 2.435661,-2.222293 4.871159,-4.445248 7.306608,-6.668987 1.204582,-1.22259 2.407831,-2.444696 3.611957,-3.668545 3.067509,2.015082 6.131951,4.028003 9.196945,6.041136 z"
       sodipodi:nodetypes="cccccccccccc"
       inkscape:label="half-ball-top-right" /></g><path
     style="display:inline;opacity:0.3;fill:#784421;fill-opacity:1;stroke:#a6d400;stroke-width:0;stroke-dasharray:none;stroke-opacity:1;paint-order:fill markers stroke"
     d="m 80.338964,158.84205 57.723086,-20.50694 -26.67795,13.00673 -11.20286,1.42409 z"
     id="path40147"
     inkscape:label="detail-behind-center-circle" /><g
     inkscape:groupmode="layer"
     id="layer6"
     inkscape:label="center-circle"
     style="display:inline;opacity:1"
     transform="translate(-13.316572,35.25865)"><path
       id="ellipse34989"
       style="display:inline;opacity:1;fill:#808080;fill-opacity:1;stroke:#a6d400;stroke-width:0;stroke-dasharray:none;stroke-opacity:1;paint-order:fill markers stroke"
       inkscape:label="background"
       d="m 117.11819,82.400511 a 17.809721,17.950522 0 0 0 -1.33134,0.05046 17.809721,17.950522 0 0 0 -1.32376,0.150541 17.809721,17.950522 0 0 0 -1.3086,0.24894 17.809721,17.950522 0 0 0 -1.28593,0.347337 17.809721,17.950522 0 0 0 -1.25732,0.444057 17.809721,17.950522 0 0 0 -1.22115,0.536568 17.809721,17.950522 0 0 0 -1.17742,0.627397 17.809721,17.950522 0 0 0 -1.1278,0.714021 17.809721,17.950522 0 0 0 -1.07145,0.797281 17.809721,17.950522 0 0 0 -1.00922,0.875498 17.809721,17.950522 0 0 0 -0.94193,0.949505 17.809721,17.950522 0 0 0 -0.86877,1.016786 17.809721,17.950522 0 0 0 -0.79056,1.080704 17.809721,17.950522 0 0 0 -0.70897,1.136211 17.809721,17.950522 0 0 0 -0.62236,1.186672 17.809721,17.950522 0 0 0 -0.53236,1.230404 17.809721,17.950522 0 0 0 -0.43985,1.267409 17.809721,17.950522 0 0 0 -0.344807,1.296845 17.809721,17.950522 0 0 0 -0.24726,1.318711 17.809721,17.950522 0 0 0 -0.149727,1.333849 17.809721,17.950522 0 0 0 -0.0496,1.341423 17.809721,17.950522 0 0 0 0.0496,1.34142 17.809721,17.950522 0 0 0 0.149727,1.33386 17.809721,17.950522 0 0 0 0.24726,1.31872 17.809721,17.950522 0 0 0 0.344807,1.29685 17.809721,17.950522 0 0 0 0.43985,1.26742 17.809721,17.950522 0 0 0 0.53236,1.23041 17.809721,17.950522 0 0 0 0.62236,1.18667 17.809721,17.950522 0 0 0 0.70897,1.13622 17.809721,17.950522 0 0 0 0.79056,1.08071 17.809721,17.950522 0 0 0 0.86877,1.01764 17.809721,17.950522 0 0 0 0.94193,0.94867 17.809721,17.950522 0 0 0 1.00922,0.8755 17.809721,17.950522 0 0 0 1.07145,0.79728 17.809721,17.950522 0 0 0 1.1278,0.71403 17.809721,17.950522 0 0 0 1.17742,0.6274 17.809721,17.950522 0 0 0 1.22115,0.53741 17.809721,17.950522 0 0 0 1.25732,0.44322 17.809721,17.950522 0 0 0 1.28593,0.34734 17.809721,17.950522 0 0 0 1.3086,0.24978 17.809721,17.950522 0 0 0 1.32376,0.1497 17.809721,17.950522 0 0 0 1.33134,0.0505 17.809721,17.950522 0 0 0 1.33048,-0.0505 17.809721,17.950522 0 0 0 1.32376,-0.1497 17.809721,17.950522 0 0 0 1.30861,-0.24978 17.809721,17.950522 0 0 0 1.28591,-0.34734 17.809721,17.950522 0 0 0 1.25732,-0.44322 17.809721,17.950522 0 0 0 1.22115,-0.53741 17.809721,17.950522 0 0 0 1.17743,-0.6274 17.809721,17.950522 0 0 0 1.1278,-0.71403 17.809721,17.950522 0 0 0 1.07146,-0.79728 17.809721,17.950522 0 0 0 1.00919,-0.8755 17.809721,17.950522 0 0 0 0.94195,-0.94867 17.809721,17.950522 0 0 0 0.86877,-1.01764 17.809721,17.950522 0 0 0 0.79056,-1.08071 17.809721,17.950522 0 0 0 0.70897,-1.13622 17.809721,17.950522 0 0 0 0.62235,-1.18667 17.809721,17.950522 0 0 0 0.53237,-1.23041 17.809721,17.950522 0 0 0 0.43983,-1.26742 17.809721,17.950522 0 0 0 0.34483,-1.29685 17.809721,17.950522 0 0 0 0.2481,-1.31872 17.809721,17.950522 0 0 0 0.14891,-1.33386 17.809721,17.950522 0 0 0 0.0496,-1.34142 17.809721,17.950522 0 0 0 -0.007,-0.454993 17.809721,17.950522 0 0 0 -0.0168,-0.454149 17.809721,17.950522 0 0 0 -0.0286,-0.454146 17.809721,17.950522 0 0 0 -0.0404,-0.452468 17.809721,17.950522 0 0 0 -0.0513,-0.452465 17.809721,17.950522 0 0 0 -0.0622,-0.449943 17.809721,17.950522 0 0 0 -0.074,-0.44826 17.809721,17.950522 0 0 0 -0.0849,-0.44658 17.809721,17.950522 0 0 0 -0.0967,-0.444896 17.809721,17.950522 0 0 0 -0.10758,-0.441533 17.809721,17.950522 0 0 0 -0.11864,-0.43901 17.809721,17.950522 0 0 0 -0.12954,-0.435645 17.809721,17.950522 0 0 0 -0.14045,-0.431441 17.809721,17.950522 0 0 0 -0.15135,-0.428917 17.809721,17.950522 0 0 0 -0.16227,-0.423872 17.809721,17.950522 0 0 0 -0.17241,-0.420507 17.809721,17.950522 0 0 0 -0.18334,-0.41546 17.809721,17.950522 0 0 0 -0.19343,-0.411257 17.809721,17.950522 0 0 0 -0.20353,-0.405368 17.809721,17.950522 0 0 0 -0.21446,-0.400323 17.809721,17.950522 0 0 0 -0.22371,-0.395277 17.809721,17.950522 0 0 0 -0.2338,-0.38855 17.809721,17.950522 0 0 0 -0.24389,-0.382661 17.809721,17.950522 0 0 0 -0.25315,-0.376776 17.809721,17.950522 0 0 0 -0.26239,-0.370045 17.809721,17.950522 0 0 0 -0.27164,-0.363318 17.809721,17.950522 0 0 0 -0.28007,-0.355751 17.809721,17.950522 0 0 0 -0.29015,-0.349021 17.809721,17.950522 0 0 0 -0.29771,-0.341452 17.809721,17.950522 0 0 0 -0.30697,-0.333041 17.809721,17.950522 0 0 0 -0.31454,-0.325474 17.809721,17.950522 0 0 0 -0.3238,-0.317902 17.809721,17.950522 0 0 0 -0.33053,-0.308653 17.809721,17.950522 0 0 0 -0.33891,-0.301083 17.809721,17.950522 0 0 0 -0.34566,-0.291832 17.809721,17.950522 0 0 0 -0.35322,-0.282582 17.809721,17.950522 0 0 0 -0.36081,-0.274171 17.809721,17.950522 0 0 0 -0.36667,-0.264077 17.809721,17.950522 0 0 0 -0.37342,-0.255668 17.809721,17.950522 0 0 0 -0.38015,-0.244736 17.809721,17.950522 0 0 0 -0.38601,-0.236324 17.809721,17.950522 0 0 0 -0.39108,-0.225393 17.809721,17.950522 0 0 0 -0.3978,-0.215301 17.809721,17.950522 0 0 0 -0.40201,-0.206047 17.809721,17.950522 0 0 0 -0.40789,-0.195115 17.809721,17.950522 0 0 0 -0.41208,-0.184184 17.809721,17.950522 0 0 0 -0.41715,-0.174089 17.809721,17.950522 0 0 0 -0.42135,-0.163157 17.809721,17.950522 0 0 0 -0.42471,-0.153063 17.809721,17.950522 0 0 0 -0.42892,-0.141296 17.809721,17.950522 0 0 0 -0.43229,-0.13036 17.809721,17.950522 0 0 0 -0.43481,-0.119423 17.809721,17.950522 0 0 0 -0.43815,-0.108486 17.809721,17.950522 0 0 0 -0.44153,-0.09755 17.809721,17.950522 0 0 0 -0.44239,-0.08579 17.809721,17.950522 0 0 0 -0.44574,-0.07484 17.809721,17.950522 0 0 0 -0.44657,-0.06308 17.809721,17.950522 0 0 0 -0.44825,-0.0513 17.809721,17.950522 0 0 0 -0.44912,-0.04036 17.809721,17.950522 0 0 0 -0.45078,-0.0286 17.809721,17.950522 0 0 0 -0.45078,-0.01766 17.809721,17.950522 0 0 0 -0.45078,-0.0059 z" /><path
       style="display:inline;opacity:0.3;fill:#6c5353;fill-opacity:1;stroke:#a6d400;stroke-width:0;stroke-dasharray:none;stroke-opacity:1;paint-order:fill markers stroke"
       d="m 115.52664,116.05321 c 3.69636,-1.35472 10.58596,-3.94801 14.14699,-5.24461 3.56103,-1.29661 3.79325,-1.29661 3.25112,-0.48374 -0.54212,0.81286 -1.85809,2.43849 -3.40625,3.77379 -1.54816,1.33529 -3.32859,2.38033 -5.41862,3.11575 -2.09003,0.73543 -4.48972,1.16118 -6.36689,1.31605 -1.87718,0.15488 -3.23186,0.0388 -4.18012,-0.11599 -0.94827,-0.15476 -1.49013,-0.34828 -1.8772,-0.48376 -0.38706,-0.13547 -0.61929,-0.21289 -0.48392,-0.30977 0.13538,-0.0969 0.63854,-0.21301 4.33489,-1.56772 z"
       id="path39790"
       inkscape:original-d="m 112.33315,117.29188 c 6.89004,-2.59287 13.77964,-5.18616 20.66883,-7.77989 0.23268,4.4e-4 0.4649,4.4e-4 0.6967,0 -1.31557,1.62612 -2.63157,3.25173 -3.94796,4.87695 -1.78008,1.04551 -3.56051,2.09055 -5.34141,3.13517 -2.39937,0.42621 -4.79906,0.85196 -7.19924,1.2773 -1.35429,-0.11568 -2.70897,-0.2318 -4.0641,-0.34836 -0.54146,-0.1931 -1.08332,-0.38662 -1.62563,-0.58058 -0.23181,-0.077 -0.46405,-0.1544 -0.69671,-0.23224 0.50362,-0.11568 1.00678,-0.2318 1.50952,-0.34835 z"
       inkscape:path-effect="#path-effect39792"
       inkscape:label="detail-botton" /><path
       style="display:inline;opacity:0.3;fill:#6c5353;fill-opacity:1;stroke:#a6d400;stroke-width:0;stroke-dasharray:none;stroke-opacity:1;paint-order:fill markers stroke"
       d="m 103.20389,108.83278 c 2.01565,-0.5823 6.04665,-1.74682 10.42105,-3.31446 4.37439,-1.56764 9.09207,-3.53833 12.86184,-5.06863 3.76976,-1.5303 6.59141,-2.620143 8.00966,-3.134995 1.41824,-0.514852 1.43321,-0.455007 1.44808,0.07498 0.0149,0.529986 0.0298,1.530261 -0.0598,2.933635 -0.0896,1.40338 -0.28368,3.20984 -0.47005,4.10545 -0.18638,0.89561 -0.36552,0.88068 -2.26918,1.44796 -1.90366,0.56727 -5.53149,1.71684 -8.82348,2.65742 -3.29199,0.94059 -6.24802,1.67213 -9.26388,2.70229 -3.01587,1.03015 -6.09131,2.35888 -7.68122,2.97122 -1.58991,0.61235 -1.69433,0.5079 -2.32139,-0.20873 -0.62707,-0.71663 -1.77663,-2.04534 -2.45594,-2.83661 -0.6793,-0.79127 -0.88831,-1.04507 -1.14216,-1.41084 -0.25384,-0.36577 -0.55241,-0.84349 -0.60467,-0.91814 -0.0523,-0.0747 0.14181,0.25379 0.2387,0.41777 0.0969,0.16397 0.0968,0.16398 2.11243,-0.41832 z"
       id="path39798"
       inkscape:path-effect="#path-effect39800"
       inkscape:original-d="m 101.18825,109.41508 c 4.03144,-1.16408 8.06244,-2.3286 12.09301,-3.49355 4.71829,-1.97033 9.43597,-3.94102 14.1533,-5.91217 2.82218,-1.089451 5.64383,-2.179293 8.4651,-3.269587 0.0147,0.06015 0.0302,0.119862 0.0448,0.179156 0.0147,1.000736 0.0303,2.001001 0.0448,3.000855 -0.19365,1.806956 -0.38774,3.613416 -0.58225,5.419486 -0.17874,-0.0145 -0.35789,-0.0294 -0.53748,-0.0448 -3.62753,1.15004 -7.25536,2.29961 -10.88368,3.44876 -2.9557,0.732 -5.91172,1.46355 -8.86822,2.19467 -3.07513,1.32921 -6.15058,2.65792 -9.2265,3.98624 -0.10416,-0.1041 -0.20854,-0.20859 -0.31345,-0.31353 -1.14919,-1.32834 -2.29874,-2.65706 -3.44876,-3.98623 -0.20859,-0.25338 -0.4176,-0.50718 -0.62704,-0.76141 -0.29817,-0.47734 -0.59674,-0.95507 -0.89577,-1.43326 0.19451,0.32889 0.38858,0.65734 0.58224,0.98536 z"
       sodipodi:nodetypes="cccccccccccccccc"
       inkscape:label="detail-center" /><path
       id="path39786"
       style="display:inline;opacity:0.3;fill:#6c5353;fill-opacity:1;stroke:#a6d400;stroke-width:0;stroke-dasharray:none;stroke-opacity:1;paint-order:fill markers stroke"
       d="M 111.79322,82.636635 C 103.1118,85.20748 96.808021,94.51271 98.888819,101.296 L 132.77516,90.509581 c -2.59239,-6.635426 -12.29483,-10.439935 -20.98194,-7.872946 z"
       sodipodi:nodetypes="cccc"
       inkscape:label="detail-top" /><ellipse
       style="display:inline;opacity:1;fill:#552200;fill-opacity:1;stroke:#a6d400;stroke-width:0;stroke-dasharray:none;stroke-opacity:1;paint-order:fill markers stroke"
       id="path35050"
       cx="117.40012"
       cy="99.995201"
       rx="11.336942"
       ry="11.125694"
       inkscape:label="center-ball" /><path
       id="path39876"
       style="display:inline;opacity:0.3;fill:#808080;fill-opacity:1;stroke:#a6d400;stroke-width:0;stroke-dasharray:none;stroke-opacity:1;paint-order:fill markers stroke"
       inkscape:label="ball-detail"
       d="m 120.26442,101.87758 c 0.0898,0.0599 0.29671,0.22356 0.52815,0.55003 0.61716,0.87057 1.40798,2.89571 0.23717,3.98727 -1.17081,1.09155 -4.3034,1.24986 -7.45223,0.50629 -2.47895,-0.58538 -4.96334,-1.72759 -6.49683,-2.33467 a 11.336942,11.125694 0 0 0 10.31923,6.53473 11.336942,11.125694 0 0 0 10.87181,-7.98717 c -0.15786,-0.0236 -0.35097,-0.0457 -0.59544,-0.0732 -1.55064,-0.17405 -4.96887,-0.55408 -6.45646,-0.88643 -0.56966,-0.12727 -0.85333,-0.24577 -0.9554,-0.29688 z" /><path
       id="path39817"
       style="display:inline;opacity:1;fill:#000000;fill-opacity:1;stroke:#a6d400;stroke-width:0;stroke-dasharray:none;stroke-opacity:1;paint-order:fill markers stroke"
       inkscape:label="border"
       d="M 117.11986,80.843792 A 19.646988,19.503568 0 0 0 97.472935,100.34692 19.646988,19.503568 0 0 0 117.11986,119.851 19.646988,19.503568 0 0 0 136.7668,100.34692 19.646988,19.503568 0 0 0 117.11986,80.843792 Z m -0.002,1.556719 a 17.809721,17.950522 0 0 1 0.45078,0.0059 17.809721,17.950522 0 0 1 0.4508,0.01765 17.809721,17.950522 0 0 1 0.45076,0.0286 17.809721,17.950522 0 0 1 0.44913,0.04036 17.809721,17.950522 0 0 1 0.44824,0.0513 17.809721,17.950522 0 0 1 0.44658,0.06308 17.809721,17.950522 0 0 1 0.44575,0.07484 17.809721,17.950522 0 0 1 0.44237,0.08578 17.809721,17.950522 0 0 1 0.44154,0.09755 17.809721,17.950522 0 0 1 0.43815,0.108487 17.809721,17.950522 0 0 1 0.43481,0.119424 17.809721,17.950522 0 0 1 0.43229,0.13036 17.809721,17.950522 0 0 1 0.42892,0.141296 17.809721,17.950522 0 0 1 0.4247,0.153062 17.809721,17.950522 0 0 1 0.42136,0.163156 17.809721,17.950522 0 0 1 0.41714,0.174091 17.809721,17.950522 0 0 1 0.41209,0.184184 17.809721,17.950522 0 0 1 0.40789,0.195114 17.809721,17.950522 0 0 1 0.402,0.206048 17.809721,17.950522 0 0 1 0.39781,0.215301 17.809721,17.950522 0 0 1 0.39108,0.225391 17.809721,17.950522 0 0 1 0.38601,0.236324 17.809721,17.950522 0 0 1 0.38014,0.244737 17.809721,17.950522 0 0 1 0.37343,0.255668 17.809721,17.950522 0 0 1 0.36666,0.264078 17.809721,17.950522 0 0 1 0.36081,0.274171 17.809721,17.950522 0 0 1 0.35323,0.282581 17.809721,17.950522 0 0 1 0.34565,0.291832 17.809721,17.950522 0 0 1 0.33893,0.301084 17.809721,17.950522 0 0 1 0.33051,0.308653 17.809721,17.950522 0 0 1 0.32381,0.317901 17.809721,17.950522 0 0 1 0.31454,0.325474 17.809721,17.950522 0 0 1 0.30697,0.333042 17.809721,17.950522 0 0 1 0.29771,0.341452 17.809721,17.950522 0 0 1 0.29015,0.34902 17.809721,17.950522 0 0 1 0.28007,0.355751 17.809721,17.950522 0 0 1 0.27163,0.363317 17.809721,17.950522 0 0 1 0.2624,0.370047 17.809721,17.950522 0 0 1 0.25315,0.376775 17.809721,17.950522 0 0 1 0.24389,0.38266 17.809721,17.950522 0 0 1 0.2338,0.388551 17.809721,17.950522 0 0 1 0.22372,0.395277 17.809721,17.950522 0 0 1 0.21444,0.400323 17.809721,17.950522 0 0 1 0.20353,0.405368 17.809721,17.950522 0 0 1 0.19345,0.411256 17.809721,17.950522 0 0 1 0.18333,0.415462 17.809721,17.950522 0 0 1 0.17241,0.420507 17.809721,17.950522 0 0 1 0.16227,0.423871 17.809721,17.950522 0 0 1 0.15134,0.428918 17.809721,17.950522 0 0 1 0.14045,0.43144 17.809721,17.950522 0 0 1 0.12954,0.435645 17.809721,17.950522 0 0 1 0.11865,0.43901 17.809721,17.950522 0 0 1 0.10758,0.441534 17.809721,17.950522 0 0 1 0.0967,0.444896 17.809721,17.950522 0 0 1 0.085,0.446579 17.809721,17.950522 0 0 1 0.074,0.448261 17.809721,17.950522 0 0 1 0.0622,0.449943 17.809721,17.950522 0 0 1 0.0513,0.452465 17.809721,17.950522 0 0 1 0.0403,0.452467 17.809721,17.950522 0 0 1 0.0286,0.454147 17.809721,17.950522 0 0 1 0.0167,0.454148 17.809721,17.950522 0 0 1 0.007,0.45499 17.809721,17.950522 0 0 1 -0.0497,1.34143 17.809721,17.950522 0 0 1 -0.14892,1.33385 17.809721,17.950522 0 0 1 -0.24808,1.31872 17.809721,17.950522 0 0 1 -0.34483,1.29685 17.809721,17.950522 0 0 1 -0.43983,1.26742 17.809721,17.950522 0 0 1 -0.53238,1.23041 17.809721,17.950522 0 0 1 -0.62234,1.18668 17.809721,17.950522 0 0 1 -0.70897,1.13622 17.809721,17.950522 0 0 1 -0.79057,1.0807 17.809721,17.950522 0 0 1 -0.86876,1.01764 17.809721,17.950522 0 0 1 -0.94195,0.94867 17.809721,17.950522 0 0 1 -1.0092,0.8755 17.809721,17.950522 0 0 1 -1.07145,0.79729 17.809721,17.950522 0 0 1 -1.12781,0.71402 17.809721,17.950522 0 0 1 -1.17741,0.6274 17.809721,17.950522 0 0 1 -1.22116,0.53742 17.809721,17.950522 0 0 1 -1.25733,0.44321 17.809721,17.950522 0 0 1 -1.28591,0.34734 17.809721,17.950522 0 0 1 -1.3086,0.24979 17.809721,17.950522 0 0 1 -1.32377,0.14969 17.809721,17.950522 0 0 1 -1.33048,0.0505 17.809721,17.950522 0 0 1 -1.33133,-0.0505 17.809721,17.950522 0 0 1 -1.32376,-0.14969 17.809721,17.950522 0 0 1 -1.30861,-0.24979 17.809721,17.950522 0 0 1 -1.28552,-0.34729 17.809721,17.950522 0 0 1 -1.25731,-0.44322 17.809721,17.950522 0 0 1 -1.22115,-0.53741 17.809721,17.950522 0 0 1 -1.17742,-0.6274 17.809721,17.950522 0 0 1 -1.1278,-0.71403 17.809721,17.950522 0 0 1 -1.07146,-0.79728 17.809721,17.950522 0 0 1 -1.00922,-0.87551 17.809721,17.950522 0 0 1 -0.94193,-0.94867 17.809721,17.950522 0 0 1 -0.86877,-1.01763 17.809721,17.950522 0 0 1 -0.79056,-1.08071 17.809721,17.950522 0 0 1 -0.70897,-1.13622 17.809721,17.950522 0 0 1 -0.62236,-1.18667 17.809721,17.950522 0 0 1 -0.53235,-1.23041 17.809721,17.950522 0 0 1 -0.43986,-1.26742 17.809721,17.950522 0 0 1 -0.344807,-1.29685 17.809721,17.950522 0 0 1 -0.24726,-1.31872 17.809721,17.950522 0 0 1 -0.149727,-1.33386 17.809721,17.950522 0 0 1 -0.0496,-1.34143 17.809721,17.950522 0 0 1 0.0496,-1.341415 17.809721,17.950522 0 0 1 0.149727,-1.333849 17.809721,17.950522 0 0 1 0.24726,-1.318711 17.809721,17.950522 0 0 1 0.344807,-1.296844 17.809721,17.950522 0 0 1 0.43986,-1.26741 17.809721,17.950522 0 0 1 0.53235,-1.230404 17.809721,17.950522 0 0 1 0.62236,-1.186671 17.809721,17.950522 0 0 1 0.70897,-1.136212 17.809721,17.950522 0 0 1 0.79056,-1.080703 17.809721,17.950522 0 0 1 0.86877,-1.016786 17.809721,17.950522 0 0 1 0.94193,-0.949507 17.809721,17.950522 0 0 1 1.00922,-0.875496 17.809721,17.950522 0 0 1 1.07146,-0.797281 17.809721,17.950522 0 0 1 1.1278,-0.714022 17.809721,17.950522 0 0 1 1.17742,-0.627396 17.809721,17.950522 0 0 1 1.22115,-0.536569 17.809721,17.950522 0 0 1 1.25731,-0.444056 17.809721,17.950522 0 0 1 1.28593,-0.347338 17.809721,17.950522 0 0 1 1.3086,-0.24894 17.809721,17.950522 0 0 1 1.32376,-0.15054 17.809721,17.950522 0 0 1 1.33134,-0.05046 z" /></g><g
     inkscape:groupmode="layer"
     id="layer9"
     inkscape:label="shield-detail"
     transform="translate(-13.316572,35.25865)"><path
       style="display:inline;opacity:0.3;fill:#784421;fill-opacity:1;stroke:#a6d400;stroke-width:0;stroke-dasharray:none;stroke-opacity:1;paint-order:fill markers stroke"
       d="m 112.16867,147.79294 28.0071,-13.48145 -23.54495,13.95615 z"
       id="path40145"
       inkscape:label="lightning-botton" /><path
       style="display:inline;opacity:0.3;fill:#784421;fill-opacity:1;stroke:#a6d400;stroke-width:0;stroke-dasharray:none;stroke-opacity:1;paint-order:fill markers stroke"
       d="M 73.243569,79.721163 93.655526,76.588165 89.66807,73.360226 110.17494,69.182894 84.636296,71.841197 87.009772,74.30962 74.00309,76.018528 Z"
       id="path40149"
       inkscape:label="lightning-right" /><path
       style="display:inline;opacity:0.3;fill:#784421;fill-opacity:1;stroke:#a6d400;stroke-width:0;stroke-dasharray:none;stroke-opacity:1;paint-order:fill markers stroke"
       d="m 158.78388,72.885529 -14.81053,3.987453 3.22793,1.51903 -16.8992,3.987452 20.79172,-3.797574 -2.08865,-1.044333 11.20283,-1.708908 z"
       id="path40151"
       inkscape:label="lightning-left" /></g><path
     id="path40273"
     style="display:inline;opacity:0.1;fill:#28170b;fill-opacity:1;stroke:#a6d400;stroke-width:0;stroke-dasharray:none;stroke-opacity:1;paint-order:fill markers stroke"
     d="m 155.12368,111.8865 c -1.91808,0.18726 -4.81179,3.19294 -7.78611,4.99986 -3.09879,1.88255 -6.2847,2.46257 -7.76172,2.78125 -1.47702,0.31869 -1.24501,0.37655 -0.0286,0.98484 1.21642,0.60828 3.41743,1.76641 3.01168,5.58941 -0.40575,3.823 -3.41809,10.31013 -9.50011,17.00037 -6.08201,6.69023 -15.23366,13.58363 -24.61733,17.52256 -9.383684,3.93893 -18.998845,4.92302 -26.123569,4.60455 -7.124726,-0.31846 -11.758372,-1.93996 -14.046617,-2.6349 -2.288262,-0.69494 -2.231056,-0.46282 -2.173184,0.75355 0.05793,1.21638 0.115713,3.41678 -1.390211,4.98049 -1.069325,1.11038 -2.923687,1.90601 -4.585197,3.00664 10.737218,13.01562 26.724471,20.55821 43.597318,20.56869 24.03073,-0.0177 43.45681,-15.95631 51.38461,-38.64168 2.85543,-10.6857 3.08193,-10.66732 3.21336,-18.64012 0.007,-0.43098 -0.29363,-5.99296 -0.72814,-7.53791 -0.18169,-2.68726 -4.18276,-10.87054 -5.66776,-14.10622 z"
     sodipodi:nodetypes="csssssssssscccsccc"
     inkscape:label="shield-shadow" /><path
     id="path23270"
     style="display:inline;opacity:1;fill:#333333;fill-opacity:1;stroke-width:0.354398"
     inkscape:label="circle-border"
     d="m 103.21879,79.635205 a 55.957193,56.117687 0 0 0 -55.957718,56.117745 55.957193,56.117687 0 0 0 55.957718,56.11761 55.957193,56.117687 0 0 0 55.9569,-56.11761 55.957193,56.117687 0 0 0 -55.9569,-56.117745 z m -0.0682,8.622084 a 46.9009,47.36583 0 0 1 1.79641,0.03532 46.9009,47.36583 0 0 1 1.79389,0.10344 46.9009,47.36583 0 0 1 1.788,0.17409 46.9009,47.36583 0 0 1 1.78042,0.242213 46.9009,47.36583 0 0 1 1.77034,0.311176 46.9009,47.36583 0 0 1 1.75688,0.380143 46.9009,47.36583 0 0 1 1.74175,0.446579 46.9009,47.36583 0 0 1 1.72324,0.514702 46.9009,47.36583 0 0 1 1.70221,0.580298 46.9009,47.36583 0 0 1 1.67865,0.6459 46.9009,47.36583 0 0 1 1.65345,0.710654 46.9009,47.36583 0 0 1 1.62567,0.773733 46.9009,47.36583 0 0 1 1.59458,0.835968 46.9009,47.36583 0 0 1 1.56176,0.897362 46.9009,47.36583 0 0 1 1.52644,0.957075 46.9009,47.36583 0 0 1 1.48859,1.01511 46.9009,47.36583 0 0 1 1.44991,1.072293 46.9009,47.36583 0 0 1 1.40787,1.1278 46.9009,47.36583 0 0 1 1.36413,1.180785 46.9009,47.36583 0 0 1 1.31787,1.23293 46.9009,47.36583 0 0 1 1.27076,1.2834 46.9009,47.36583 0 0 1 1.22115,1.33133 46.9009,47.36583 0 0 1 1.16901,1.37759 46.9009,47.36583 0 0 1 1.11688,1.42217 46.9009,47.36583 0 0 1 1.06135,1.46337 46.9009,47.36583 0 0 1 1.00585,1.50374 46.9009,47.36583 0 0 1 0.94699,1.54243 46.9009,47.36583 0 0 1 0.88895,1.57691 46.9009,47.36583 0 0 1 0.82757,1.61055 46.9009,47.36583 0 0 1 0.76616,1.64084 46.9009,47.36583 0 0 1 0.70393,1.67026 46.9009,47.36583 0 0 1 0.63917,1.6955 46.9009,47.36583 0 0 1 0.57526,1.71904 46.9009,47.36583 0 0 1 0.50881,1.74007 46.9009,47.36583 0 0 1 0.4432,1.75857 46.9009,47.36583 0 0 1 0.37595,1.77455 46.9009,47.36583 0 0 1 0.3078,1.78801 46.9009,47.36583 0 0 1 0.24053,1.79809 46.9009,47.36583 0 0 1 0.17157,1.80652 46.9009,47.36583 0 0 1 0.10351,1.81156 46.9009,47.36583 0 0 1 0.0345,1.81408 46.9009,47.36583 0 0 1 -0.2952,5.30346 46.9009,47.36583 0 0 1 -0.88055,5.23619 46.9009,47.36583 0 0 1 -1.45665,5.10411 46.9009,47.36583 0 0 1 -2.01253,4.90733 46.9009,47.36583 0 0 1 -2.54408,4.64913 46.9009,47.36583 0 0 1 -3.04363,4.33206 46.9009,47.36583 0 0 1 -3.50449,3.96033 46.9009,47.36583 0 0 1 -3.92166,3.53984 46.9009,47.36583 0 0 1 -4.28917,3.07306 46.9009,47.36583 0 0 1 -4.60372,2.57015 46.9009,47.36583 0 0 1 -4.8594,2.03188 46.9009,47.36583 0 0 1 -5.05364,1.47094 46.9009,47.36583 0 0 1 -5.18485,0.8898 46.9009,47.36583 0 0 1 -5.25131,0.29771 46.9009,47.36583 0 0 1 -5.251288,-0.29771 46.9009,47.36583 0 0 1 -5.185674,-0.8898 46.9009,47.36583 0 0 1 -5.053646,-1.47094 46.9009,47.36583 0 0 1 -4.859392,-2.03188 46.9009,47.36583 0 0 1 -4.602872,-2.57015 46.9009,47.36583 0 0 1 -4.29001,-3.07305 46.9009,47.36583 0 0 1 -3.921652,-3.53985 46.9009,47.36583 0 0 1 -3.504509,-3.96033 46.9009,47.36583 0 0 1 -3.043632,-4.33206 46.9009,47.36583 0 0 1 -2.544069,-4.64913 46.9009,47.36583 0 0 1 -2.012548,-4.90732 46.9009,47.36583 0 0 1 -1.455796,-5.10412 46.9009,47.36583 0 0 1 -0.881385,-5.23619 46.9009,47.36583 0 0 1 -0.294354,-5.30346 46.9009,47.36583 0 0 1 0.294354,-5.30348 46.9009,47.36583 0 0 1 0.881385,-5.23618 46.9009,47.36583 0 0 1 1.455796,-5.10415 46.9009,47.36583 0 0 1 2.012548,-4.90735 46.9009,47.36583 0 0 1 2.544069,-4.64915 46.9009,47.36583 0 0 1 3.043632,-4.3321 46.9009,47.36583 0 0 1 3.504509,-3.96035 46.9009,47.36583 0 0 1 3.921652,-3.539849 46.9009,47.36583 0 0 1 4.29001,-3.073066 46.9009,47.36583 0 0 1 4.602872,-2.5693 46.9009,47.36583 0 0 1 4.859392,-2.032731 46.9009,47.36583 0 0 1 5.053646,-1.470933 46.9009,47.36583 0 0 1 5.185674,-0.889801 46.9009,47.36583 0 0 1 5.251288,-0.297719 z" /><text
     xml:space="preserve"
     style="font-style:normal;font-variant:normal;font-weight:normal;font-stretch:normal;font-size:4.84218px;font-family:'Night Club Seventy';-inkscape-font-specification:'Night Club Seventy';opacity:1;fill:#ffd42a;fill-opacity:1;stroke:#a6d400;stroke-width:0;stroke-dasharray:none;paint-order:fill markers stroke"
     id="text8513"
     transform="matrix(1.6274628,0,0,1.6274628,-87.39283,40.128823)"><textPath
       xlink:href="#path8518"
       id="textPath8572"><tspan
         id="tspan8511"
         style="fill:#ffd42a;fill-opacity:1;stroke-width:0">Shield Wall</tspan></textPath></text><circle
     style="display:none;opacity:0.4;fill:#ff2a2a;fill-opacity:1;stroke:#a6d400;stroke-width:0;stroke-dasharray:none;paint-order:fill markers stroke"
     id="path8518"
     cx="13.555296"
     cy="130.24329"
     r="34.463699"
     transform="matrix(-0.34417954,0.93890385,0.93890385,0.34417954,0,0)" /></svg>
